<svg xmlns="http://www.w3.org/2000/svg" xml:space="preserve" xmlns:xlink="http://www.w3.org/1999/xlink" style="max-width: 100%;height: auto;" width="1051.25" height="1226.4583333333" viewBox="0 0 1051.25 1226.4583333333">
<defs><linearGradient id="pattern-mask" x1="0%" y1="0%" x2="12%" y2="100%" gradientUnits="userSpaceOnUse"><stop offset="0%" stop-color="#000000" /><stop offset="100%" stop-color="#000000" /></linearGradient>
<mask id="qrmask"><g fill="#ffffff"><g transform="scale(43.802083333333)" fill="#000000"><path d="M1.3,28L22.6,28c0.7,0,1.3-0.6,1.3-1.3L24,1.4c0-0.7-0.6-1.3-1.3-1.3L1.4,0C0.7,0,0.1,0.6,0,1.3L0,26.6 C-0.1,27.4,0.5,28,1.3,28z M1,6c0-0.6,0.5-1,1-1L22,5c0.6,0,1,0.5,1,1L23,26c0,0.6-0.5,1-1,1L2,27c-0.6,0-1-0.5-1-1L1,6z"/></g>
<g transform="translate(0,175.20833333333)" >
<g transform="translate(337.125,105.125) scale(4.9783333333333)"><path d="M5.5,6h-5V3c0-1.4,1.1-2.5,2.5-2.5h0c1.4,0,2.5,1.1,2.5,2.5V6z"/></g>
<g transform="translate(395.125,105.125) scale(4.9783333333333)"><path d="M5.5,6h-5V3c0-1.4,1.1-2.5,2.5-2.5h0c1.4,0,2.5,1.1,2.5,2.5V6z"/></g>
<g transform="translate(424.125,105.125) scale(4.9783333333333)"><circle cx="3" cy="3" r="2.5"/></g>
<g transform="translate(511.125,105.125) scale(4.9783333333333)"><path d="M5.5,6h-5V3c0-1.4,1.1-2.5,2.5-2.5h0c1.4,0,2.5,1.1,2.5,2.5V6z"/></g>
<g transform="translate(598.125,105.125) scale(4.9783333333333)"><path d="M5.5,6h-5V3c0-1.4,1.1-2.5,2.5-2.5h0c1.4,0,2.5,1.1,2.5,2.5V6z"/></g>
<g transform="translate(627.125,105.125) scale(4.9783333333333)"><circle cx="3" cy="3" r="2.5"/></g>
<g transform="translate(685.125,105.125) scale(4.9783333333333)"><circle cx="3" cy="3" r="2.5"/></g>
<g transform="translate(337.125,134.125) scale(4.9783333333333)"><rect x="0.5" width="5" height="6"/></g>
<g transform="translate(366.125,134.125) scale(4.9783333333333)"><circle cx="3" cy="3" r="2.5"/></g>
<g transform="translate(395.125,134.125) scale(4.9783333333333)"><path d="M3,5.5L3,5.5C1.6,5.5,0.5,4.4,0.5,3V0h5v3C5.5,4.4,4.4,5.5,3,5.5z"/></g>
<g transform="translate(511.125,134.125) scale(4.9783333333333)"><path d="M3,5.5L3,5.5C1.6,5.5,0.5,4.4,0.5,3V0h5v3C5.5,4.4,4.4,5.5,3,5.5z"/></g>
<g transform="translate(598.125,134.125) scale(4.9783333333333)"><path d="M3,5.5L3,5.5C1.6,5.5,0.5,4.4,0.5,3V0h5v3C5.5,4.4,4.4,5.5,3,5.5z"/></g>
<g transform="translate(656.125,134.125) scale(4.9783333333333)"><path d="M5.5,6h-5V3c0-1.4,1.1-2.5,2.5-2.5h0c1.4,0,2.5,1.1,2.5,2.5V6z"/></g>
<g transform="translate(337.125,163.125) scale(4.9783333333333)"><path d="M3,5.5L3,5.5C1.6,5.5,0.5,4.4,0.5,3V0h5v3C5.5,4.4,4.4,5.5,3,5.5z"/></g>
<g transform="translate(424.125,163.125) scale(4.9783333333333)"><path d="M5.5,6h-5V3c0-1.4,1.1-2.5,2.5-2.5h0c1.4,0,2.5,1.1,2.5,2.5V6z"/></g>
<g transform="translate(453.125,163.125) scale(4.9783333333333)"><circle cx="3" cy="3" r="2.5"/></g>
<g transform="translate(540.125,163.125) scale(4.9783333333333)"><path d="M5.5,6h-5V3c0-1.4,1.1-2.5,2.5-2.5h0c1.4,0,2.5,1.1,2.5,2.5V6z"/></g>
<g transform="translate(569.125,163.125) scale(4.9783333333333)"><path d="M5.5,6h-5V3c0-1.4,1.1-2.5,2.5-2.5h0c1.4,0,2.5,1.1,2.5,2.5V6z"/></g>
<g transform="translate(627.125,163.125) scale(4.9783333333333)"><circle cx="3" cy="3" r="2.5"/></g>
<g transform="translate(656.125,163.125) scale(4.9783333333333)"><rect x="0.5" width="5" height="6"/></g>
<g transform="translate(685.125,163.125) scale(4.9783333333333)"><circle cx="3" cy="3" r="2.5"/></g>
<g transform="translate(395.125,192.125) scale(4.9783333333333)"><path d="M5.5,6h-5V3c0-1.4,1.1-2.5,2.5-2.5h0c1.4,0,2.5,1.1,2.5,2.5V6z"/></g>
<g transform="translate(424.125,192.125) scale(4.9783333333333)"><rect x="0.5" width="5" height="6"/></g>
<g transform="translate(482.125,192.125) scale(4.9783333333333)"><circle cx="3" cy="3" r="2.5"/></g>
<g transform="translate(511.125,192.125) scale(4.9783333333333)"><circle cx="3" cy="3" r="2.5"/></g>
<g transform="translate(540.125,192.125) scale(4.9783333333333)"><path d="M3,5.5L3,5.5C1.6,5.5,0.5,4.4,0.5,3V0h5v3C5.5,4.4,4.4,5.5,3,5.5z"/></g>
<g transform="translate(569.125,192.125) scale(4.9783333333333)"><rect x="0.5" width="5" height="6"/></g>
<g transform="translate(598.125,192.125) scale(4.9783333333333)"><circle cx="3" cy="3" r="2.5"/></g>
<g transform="translate(656.125,192.125) scale(4.9783333333333)"><rect x="0.5" width="5" height="6"/></g>
<g transform="translate(366.125,221.125) scale(4.9783333333333)"><circle cx="3" cy="3" r="2.5"/></g>
<g transform="translate(395.125,221.125) scale(4.9783333333333)"><rect x="0.5" width="5" height="6"/></g>
<g transform="translate(424.125,221.125) scale(4.9783333333333)"><path d="M3,5.5L3,5.5C1.6,5.5,0.5,4.4,0.5,3V0h5v3C5.5,4.4,4.4,5.5,3,5.5z"/></g>
<g transform="translate(453.125,221.125) scale(4.9783333333333)"><path d="M5.5,6h-5V3c0-1.4,1.1-2.5,2.5-2.5h0c1.4,0,2.5,1.1,2.5,2.5V6z"/></g>
<g transform="translate(569.125,221.125) scale(4.9783333333333)"><rect x="0.5" width="5" height="6"/></g>
<g transform="translate(627.125,221.125) scale(4.9783333333333)"><path d="M5.5,6h-5V3c0-1.4,1.1-2.5,2.5-2.5h0c1.4,0,2.5,1.1,2.5,2.5V6z"/></g>
<g transform="translate(656.125,221.125) scale(4.9783333333333)"><path d="M3,5.5L3,5.5C1.6,5.5,0.5,4.4,0.5,3V0h5v3C5.5,4.4,4.4,5.5,3,5.5z"/></g>
<g transform="translate(337.125,250.125) scale(4.9783333333333)"><path d="M5.5,6h-5V3c0-1.4,1.1-2.5,2.5-2.5h0c1.4,0,2.5,1.1,2.5,2.5V6z"/></g>
<g transform="translate(395.125,250.125) scale(4.9783333333333)"><rect x="0.5" width="5" height="6"/></g>
<g transform="translate(453.125,250.125) scale(4.9783333333333)"><rect x="0.5" width="5" height="6"/></g>
<g transform="translate(482.125,250.125) scale(4.9783333333333)"><circle cx="3" cy="3" r="2.5"/></g>
<g transform="translate(511.125,250.125) scale(4.9783333333333)"><path d="M5.5,6h-5V3c0-1.4,1.1-2.5,2.5-2.5h0c1.4,0,2.5,1.1,2.5,2.5V6z"/></g>
<g transform="translate(540.125,250.125) scale(4.9783333333333)"><circle cx="3" cy="3" r="2.5"/></g>
<g transform="translate(569.125,250.125) scale(4.9783333333333)"><rect x="0.5" width="5" height="6"/></g>
<g transform="translate(627.125,250.125) scale(4.9783333333333)"><rect x="0.5" width="5" height="6"/></g>
<g transform="translate(337.125,279.125) scale(4.9783333333333)"><rect x="0.5" width="5" height="6"/></g>
<g transform="translate(395.125,279.125) scale(4.9783333333333)"><path d="M3,5.5L3,5.5C1.6,5.5,0.5,4.4,0.5,3V0h5v3C5.5,4.4,4.4,5.5,3,5.5z"/></g>
<g transform="translate(453.125,279.125) scale(4.9783333333333)"><rect x="0.5" width="5" height="6"/></g>
<g transform="translate(511.125,279.125) scale(4.9783333333333)"><path d="M3,5.5L3,5.5C1.6,5.5,0.5,4.4,0.5,3V0h5v3C5.5,4.4,4.4,5.5,3,5.5z"/></g>
<g transform="translate(569.125,279.125) scale(4.9783333333333)"><rect x="0.5" width="5" height="6"/></g>
<g transform="translate(627.125,279.125) scale(4.9783333333333)"><path d="M3,5.5L3,5.5C1.6,5.5,0.5,4.4,0.5,3V0h5v3C5.5,4.4,4.4,5.5,3,5.5z"/></g>
<g transform="translate(685.125,279.125) scale(4.9783333333333)"><circle cx="3" cy="3" r="2.5"/></g>
<g transform="translate(337.125,308.125) scale(4.9783333333333)"><rect x="0.5" width="5" height="6"/></g>
<g transform="translate(424.125,308.125) scale(4.9783333333333)"><circle cx="3" cy="3" r="2.5"/></g>
<g transform="translate(453.125,308.125) scale(4.9783333333333)"><path d="M3,5.5L3,5.5C1.6,5.5,0.5,4.4,0.5,3V0h5v3C5.5,4.4,4.4,5.5,3,5.5z"/></g>
<g transform="translate(482.125,308.125) scale(4.9783333333333)"><circle cx="3" cy="3" r="2.5"/></g>
<g transform="translate(540.125,308.125) scale(4.9783333333333)"><path d="M5.5,6h-5V3c0-1.4,1.1-2.5,2.5-2.5h0c1.4,0,2.5,1.1,2.5,2.5V6z"/></g>
<g transform="translate(569.125,308.125) scale(4.9783333333333)"><rect x="0.5" width="5" height="6"/></g>
<g transform="translate(656.125,308.125) scale(4.9783333333333)"><circle cx="3" cy="3" r="2.5"/></g>
<g transform="translate(163.125,337.125) scale(4.9783333333333)"><path d="M5.5,6h-5V3c0-1.4,1.1-2.5,2.5-2.5h0c1.4,0,2.5,1.1,2.5,2.5V6z"/></g>
<g transform="translate(192.125,337.125) scale(4.9783333333333)"><circle cx="3" cy="3" r="2.5"/></g>
<g transform="translate(221.125,337.125) scale(4.9783333333333)"><circle cx="3" cy="3" r="2.5"/></g>
<g transform="translate(279.125,337.125) scale(4.9783333333333)"><circle cx="3" cy="3" r="2.5"/></g>
<g transform="translate(337.125,337.125) scale(4.9783333333333)"><rect x="0.5" width="5" height="6"/></g>
<g transform="translate(395.125,337.125) scale(4.9783333333333)"><path d="M5.5,6h-5V3c0-1.4,1.1-2.5,2.5-2.5h0c1.4,0,2.5,1.1,2.5,2.5V6z"/></g>
<g transform="translate(511.125,337.125) scale(4.9783333333333)"><path d="M5.5,6h-5V3c0-1.4,1.1-2.5,2.5-2.5h0c1.4,0,2.5,1.1,2.5,2.5V6z"/></g>
<g transform="translate(540.125,337.125) scale(4.9783333333333)"><rect x="0.5" width="5" height="6"/></g>
<g transform="translate(569.125,337.125) scale(4.9783333333333)"><path d="M3,5.5L3,5.5C1.6,5.5,0.5,4.4,0.5,3V0h5v3C5.5,4.4,4.4,5.5,3,5.5z"/></g>
<g transform="translate(627.125,337.125) scale(4.9783333333333)"><circle cx="3" cy="3" r="2.5"/></g>
<g transform="translate(714.125,337.125) scale(4.9783333333333)"><path d="M5.5,6h-5V3c0-1.4,1.1-2.5,2.5-2.5h0c1.4,0,2.5,1.1,2.5,2.5V6z"/></g>
<g transform="translate(743.125,337.125) scale(4.9783333333333)"><circle cx="3" cy="3" r="2.5"/></g>
<g transform="translate(772.125,337.125) scale(4.9783333333333)"><path d="M5.5,6h-5V3c0-1.4,1.1-2.5,2.5-2.5h0c1.4,0,2.5,1.1,2.5,2.5V6z"/></g>
<g transform="translate(859.125,337.125) scale(4.9783333333333)"><path d="M5.5,6h-5V3c0-1.4,1.1-2.5,2.5-2.5h0c1.4,0,2.5,1.1,2.5,2.5V6z"/></g>
<g transform="translate(888.125,337.125) scale(4.9783333333333)"><circle cx="3" cy="3" r="2.5"/></g>
<g transform="translate(917.125,337.125) scale(4.9783333333333)"><path d="M5.5,6h-5V3c0-1.4,1.1-2.5,2.5-2.5h0c1.4,0,2.5,1.1,2.5,2.5V6z"/></g>
<g transform="translate(163.125,366.125) scale(4.9783333333333)"><rect x="0.5" width="5" height="6"/></g>
<g transform="translate(250.125,366.125) scale(4.9783333333333)"><path d="M5.5,6h-5V3c0-1.4,1.1-2.5,2.5-2.5h0c1.4,0,2.5,1.1,2.5,2.5V6z"/></g>
<g transform="translate(308.125,366.125) scale(4.9783333333333)"><path d="M5.5,6h-5V3c0-1.4,1.1-2.5,2.5-2.5h0c1.4,0,2.5,1.1,2.5,2.5V6z"/></g>
<g transform="translate(337.125,366.125) scale(4.9783333333333)"><path d="M3,5.5L3,5.5C1.6,5.5,0.5,4.4,0.5,3V0h5v3C5.5,4.4,4.4,5.5,3,5.5z"/></g>
<g transform="translate(366.125,366.125) scale(4.9783333333333)"><circle cx="3" cy="3" r="2.5"/></g>
<g transform="translate(395.125,366.125) scale(4.9783333333333)"><rect x="0.5" width="5" height="6"/></g>
<g transform="translate(511.125,366.125) scale(4.9783333333333)"><rect x="0.5" width="5" height="6"/></g>
<g transform="translate(540.125,366.125) scale(4.9783333333333)"><path d="M3,5.5L3,5.5C1.6,5.5,0.5,4.4,0.5,3V0h5v3C5.5,4.4,4.4,5.5,3,5.5z"/></g>
<g transform="translate(598.125,366.125) scale(4.9783333333333)"><circle cx="3" cy="3" r="2.5"/></g>
<g transform="translate(714.125,366.125) scale(4.9783333333333)"><rect x="0.5" width="5" height="6"/></g>
<g transform="translate(772.125,366.125) scale(4.9783333333333)"><path d="M3,5.5L3,5.5C1.6,5.5,0.5,4.4,0.5,3V0h5v3C5.5,4.4,4.4,5.5,3,5.5z"/></g>
<g transform="translate(801.125,366.125) scale(4.9783333333333)"><circle cx="3" cy="3" r="2.5"/></g>
<g transform="translate(830.125,366.125) scale(4.9783333333333)"><circle cx="3" cy="3" r="2.5"/></g>
<g transform="translate(859.125,366.125) scale(4.9783333333333)"><rect x="0.5" width="5" height="6"/></g>
<g transform="translate(917.125,366.125) scale(4.9783333333333)"><path d="M3,5.5L3,5.5C1.6,5.5,0.5,4.4,0.5,3V0h5v3C5.5,4.4,4.4,5.5,3,5.5z"/></g>
<g transform="translate(134.125,395.125) scale(4.9783333333333)"><circle cx="3" cy="3" r="2.5"/></g>
<g transform="translate(163.125,395.125) scale(4.9783333333333)"><rect x="0.5" width="5" height="6"/></g>
<g transform="translate(221.125,395.125) scale(4.9783333333333)"><circle cx="3" cy="3" r="2.5"/></g>
<g transform="translate(250.125,395.125) scale(4.9783333333333)"><path d="M3,5.5L3,5.5C1.6,5.5,0.5,4.4,0.5,3V0h5v3C5.5,4.4,4.4,5.5,3,5.5z"/></g>
<g transform="translate(279.125,395.125) scale(4.9783333333333)"><circle cx="3" cy="3" r="2.5"/></g>
<g transform="translate(308.125,395.125) scale(4.9783333333333)"><path d="M3,5.5L3,5.5C1.6,5.5,0.5,4.4,0.5,3V0h5v3C5.5,4.4,4.4,5.5,3,5.5z"/></g>
<g transform="translate(395.125,395.125) scale(4.9783333333333)"><rect x="0.5" width="5" height="6"/></g>
<g transform="translate(453.125,395.125) scale(4.9783333333333)"><path d="M5.5,6h-5V3c0-1.4,1.1-2.5,2.5-2.5h0c1.4,0,2.5,1.1,2.5,2.5V6z"/></g>
<g transform="translate(482.125,395.125) scale(4.9783333333333)"><circle cx="3" cy="3" r="2.5"/></g>
<g transform="translate(511.125,395.125) scale(4.9783333333333)"><path d="M3,5.5L3,5.5C1.6,5.5,0.5,4.4,0.5,3V0h5v3C5.5,4.4,4.4,5.5,3,5.5z"/></g>
<g transform="translate(569.125,395.125) scale(4.9783333333333)"><path d="M5.5,6h-5V3c0-1.4,1.1-2.5,2.5-2.5h0c1.4,0,2.5,1.1,2.5,2.5V6z"/></g>
<g transform="translate(714.125,395.125) scale(4.9783333333333)"><rect x="0.5" width="5" height="6"/></g>
<g transform="translate(743.125,395.125) scale(4.9783333333333)"><path d="M5.5,6h-5V3c0-1.4,1.1-2.5,2.5-2.5h0c1.4,0,2.5,1.1,2.5,2.5V6z"/></g>
<g transform="translate(859.125,395.125) scale(4.9783333333333)"><path d="M3,5.5L3,5.5C1.6,5.5,0.5,4.4,0.5,3V0h5v3C5.5,4.4,4.4,5.5,3,5.5z"/></g>
<g transform="translate(163.125,424.125) scale(4.9783333333333)"><rect x="0.5" width="5" height="6"/></g>
<g transform="translate(192.125,424.125) scale(4.9783333333333)"><path d="M5.5,6h-5V3c0-1.4,1.1-2.5,2.5-2.5h0c1.4,0,2.5,1.1,2.5,2.5V6z"/></g>
<g transform="translate(366.125,424.125) scale(4.9783333333333)"><circle cx="3" cy="3" r="2.5"/></g>
<g transform="translate(395.125,424.125) scale(4.9783333333333)"><path d="M3,5.5L3,5.5C1.6,5.5,0.5,4.4,0.5,3V0h5v3C5.5,4.4,4.4,5.5,3,5.5z"/></g>
<g transform="translate(424.125,424.125) scale(4.9783333333333)"><circle cx="3" cy="3" r="2.5"/></g>
<g transform="translate(453.125,424.125) scale(4.9783333333333)"><path d="M3,5.5L3,5.5C1.6,5.5,0.5,4.4,0.5,3V0h5v3C5.5,4.4,4.4,5.5,3,5.5z"/></g>
<g transform="translate(569.125,424.125) scale(4.9783333333333)"><rect x="0.5" width="5" height="6"/></g>
<g transform="translate(598.125,424.125) scale(4.9783333333333)"><circle cx="3" cy="3" r="2.5"/></g>
<g transform="translate(685.125,424.125) scale(4.9783333333333)"><path d="M5.5,6h-5V3c0-1.4,1.1-2.5,2.5-2.5h0c1.4,0,2.5,1.1,2.5,2.5V6z"/></g>
<g transform="translate(714.125,424.125) scale(4.9783333333333)"><rect x="0.5" width="5" height="6"/></g>
<g transform="translate(743.125,424.125) scale(4.9783333333333)"><path d="M3,5.5L3,5.5C1.6,5.5,0.5,4.4,0.5,3V0h5v3C5.5,4.4,4.4,5.5,3,5.5z"/></g>
<g transform="translate(801.125,424.125) scale(4.9783333333333)"><circle cx="3" cy="3" r="2.5"/></g>
<g transform="translate(830.125,424.125) scale(4.9783333333333)"><circle cx="3" cy="3" r="2.5"/></g>
<g transform="translate(888.125,424.125) scale(4.9783333333333)"><path d="M5.5,6h-5V3c0-1.4,1.1-2.5,2.5-2.5h0c1.4,0,2.5,1.1,2.5,2.5V6z"/></g>
<g transform="translate(134.125,453.125) scale(4.9783333333333)"><circle cx="3" cy="3" r="2.5"/></g>
<g transform="translate(163.125,453.125) scale(4.9783333333333)"><rect x="0.5" width="5" height="6"/></g>
<g transform="translate(192.125,453.125) scale(4.9783333333333)"><rect x="0.5" width="5" height="6"/></g>
<g transform="translate(221.125,453.125) scale(4.9783333333333)"><path d="M5.5,6h-5V3c0-1.4,1.1-2.5,2.5-2.5h0c1.4,0,2.5,1.1,2.5,2.5V6z"/></g>
<g transform="translate(250.125,453.125) scale(4.9783333333333)"><path d="M5.5,6h-5V3c0-1.4,1.1-2.5,2.5-2.5h0c1.4,0,2.5,1.1,2.5,2.5V6z"/></g>
<g transform="translate(279.125,453.125) scale(4.9783333333333)"><circle cx="3" cy="3" r="2.5"/></g>
<g transform="translate(308.125,453.125) scale(4.9783333333333)"><path d="M5.5,6h-5V3c0-1.4,1.1-2.5,2.5-2.5h0c1.4,0,2.5,1.1,2.5,2.5V6z"/></g>
<g transform="translate(337.125,453.125) scale(4.9783333333333)"><circle cx="3" cy="3" r="2.5"/></g>
<g transform="translate(482.125,453.125) scale(4.9783333333333)"><path d="M5.5,6h-5V3c0-1.4,1.1-2.5,2.5-2.5h0c1.4,0,2.5,1.1,2.5,2.5V6z"/></g>
<g transform="translate(511.125,453.125) scale(4.9783333333333)"><circle cx="3" cy="3" r="2.5"/></g>
<g transform="translate(540.125,453.125) scale(4.9783333333333)"><path d="M5.5,6h-5V3c0-1.4,1.1-2.5,2.5-2.5h0c1.4,0,2.5,1.1,2.5,2.5V6z"/></g>
<g transform="translate(569.125,453.125) scale(4.9783333333333)"><path d="M3,5.5L3,5.5C1.6,5.5,0.5,4.4,0.5,3V0h5v3C5.5,4.4,4.4,5.5,3,5.5z"/></g>
<g transform="translate(685.125,453.125) scale(4.9783333333333)"><rect x="0.5" width="5" height="6"/></g>
<g transform="translate(714.125,453.125) scale(4.9783333333333)"><rect x="0.5" width="5" height="6"/></g>
<g transform="translate(772.125,453.125) scale(4.9783333333333)"><circle cx="3" cy="3" r="2.5"/></g>
<g transform="translate(859.125,453.125) scale(4.9783333333333)"><circle cx="3" cy="3" r="2.5"/></g>
<g transform="translate(888.125,453.125) scale(4.9783333333333)"><rect x="0.5" width="5" height="6"/></g>
<g transform="translate(917.125,453.125) scale(4.9783333333333)"><path d="M5.5,6h-5V3c0-1.4,1.1-2.5,2.5-2.5h0c1.4,0,2.5,1.1,2.5,2.5V6z"/></g>
<g transform="translate(163.125,482.125) scale(4.9783333333333)"><path d="M3,5.5L3,5.5C1.6,5.5,0.5,4.4,0.5,3V0h5v3C5.5,4.4,4.4,5.5,3,5.5z"/></g>
<g transform="translate(192.125,482.125) scale(4.9783333333333)"><path d="M3,5.5L3,5.5C1.6,5.5,0.5,4.4,0.5,3V0h5v3C5.5,4.4,4.4,5.5,3,5.5z"/></g>
<g transform="translate(221.125,482.125) scale(4.9783333333333)"><rect x="0.5" width="5" height="6"/></g>
<g transform="translate(250.125,482.125) scale(4.9783333333333)"><rect x="0.5" width="5" height="6"/></g>
<g transform="translate(308.125,482.125) scale(4.9783333333333)"><path d="M3,5.5L3,5.5C1.6,5.5,0.5,4.4,0.5,3V0h5v3C5.5,4.4,4.4,5.5,3,5.5z"/></g>
<g transform="translate(366.125,482.125) scale(4.9783333333333)"><path d="M5.5,6h-5V3c0-1.4,1.1-2.5,2.5-2.5h0c1.4,0,2.5,1.1,2.5,2.5V6z"/></g>
<g transform="translate(395.125,482.125) scale(4.9783333333333)"><circle cx="3" cy="3" r="2.5"/></g>
<g transform="translate(453.125,482.125) scale(4.9783333333333)"><path d="M5.5,6h-5V3c0-1.4,1.1-2.5,2.5-2.5h0c1.4,0,2.5,1.1,2.5,2.5V6z"/></g>
<g transform="translate(482.125,482.125) scale(4.9783333333333)"><rect x="0.5" width="5" height="6"/></g>
<g transform="translate(540.125,482.125) scale(4.9783333333333)"><path d="M3,5.5L3,5.5C1.6,5.5,0.5,4.4,0.5,3V0h5v3C5.5,4.4,4.4,5.5,3,5.5z"/></g>
<g transform="translate(627.125,482.125) scale(4.9783333333333)"><path d="M5.5,6h-5V3c0-1.4,1.1-2.5,2.5-2.5h0c1.4,0,2.5,1.1,2.5,2.5V6z"/></g>
<g transform="translate(656.125,482.125) scale(4.9783333333333)"><circle cx="3" cy="3" r="2.5"/></g>
<g transform="translate(685.125,482.125) scale(4.9783333333333)"><rect x="0.5" width="5" height="6"/></g>
<g transform="translate(714.125,482.125) scale(4.9783333333333)"><path d="M3,5.5L3,5.5C1.6,5.5,0.5,4.4,0.5,3V0h5v3C5.5,4.4,4.4,5.5,3,5.5z"/></g>
<g transform="translate(743.125,482.125) scale(4.9783333333333)"><path d="M5.5,6h-5V3c0-1.4,1.1-2.5,2.5-2.5h0c1.4,0,2.5,1.1,2.5,2.5V6z"/></g>
<g transform="translate(801.125,482.125) scale(4.9783333333333)"><circle cx="3" cy="3" r="2.5"/></g>
<g transform="translate(830.125,482.125) scale(4.9783333333333)"><circle cx="3" cy="3" r="2.5"/></g>
<g transform="translate(888.125,482.125) scale(4.9783333333333)"><path d="M3,5.5L3,5.5C1.6,5.5,0.5,4.4,0.5,3V0h5v3C5.5,4.4,4.4,5.5,3,5.5z"/></g>
<g transform="translate(917.125,482.125) scale(4.9783333333333)"><path d="M3,5.5L3,5.5C1.6,5.5,0.5,4.4,0.5,3V0h5v3C5.5,4.4,4.4,5.5,3,5.5z"/></g>
<g transform="translate(221.125,511.125) scale(4.9783333333333)"><path d="M3,5.5L3,5.5C1.6,5.5,0.5,4.4,0.5,3V0h5v3C5.5,4.4,4.4,5.5,3,5.5z"/></g>
<g transform="translate(250.125,511.125) scale(4.9783333333333)"><rect x="0.5" width="5" height="6"/></g>
<g transform="translate(279.125,511.125) scale(4.9783333333333)"><circle cx="3" cy="3" r="2.5"/></g>
<g transform="translate(337.125,511.125) scale(4.9783333333333)"><path d="M5.5,6h-5V3c0-1.4,1.1-2.5,2.5-2.5h0c1.4,0,2.5,1.1,2.5,2.5V6z"/></g>
<g transform="translate(366.125,511.125) scale(4.9783333333333)"><path d="M3,5.5L3,5.5C1.6,5.5,0.5,4.4,0.5,3V0h5v3C5.5,4.4,4.4,5.5,3,5.5z"/></g>
<g transform="translate(453.125,511.125) scale(4.9783333333333)"><rect x="0.5" width="5" height="6"/></g>
<g transform="translate(482.125,511.125) scale(4.9783333333333)"><rect x="0.5" width="5" height="6"/></g>
<g transform="translate(511.125,511.125) scale(4.9783333333333)"><circle cx="3" cy="3" r="2.5"/></g>
<g transform="translate(627.125,511.125) scale(4.9783333333333)"><path d="M3,5.5L3,5.5C1.6,5.5,0.5,4.4,0.5,3V0h5v3C5.5,4.4,4.4,5.5,3,5.5z"/></g>
<g transform="translate(685.125,511.125) scale(4.9783333333333)"><path d="M3,5.5L3,5.5C1.6,5.5,0.5,4.4,0.5,3V0h5v3C5.5,4.4,4.4,5.5,3,5.5z"/></g>
<g transform="translate(743.125,511.125) scale(4.9783333333333)"><rect x="0.5" width="5" height="6"/></g>
<g transform="translate(772.125,511.125) scale(4.9783333333333)"><circle cx="3" cy="3" r="2.5"/></g>
<g transform="translate(105.125,540.125) scale(4.9783333333333)"><circle cx="3" cy="3" r="2.5"/></g>
<g transform="translate(163.125,540.125) scale(4.9783333333333)"><path d="M5.5,6h-5V3c0-1.4,1.1-2.5,2.5-2.5h0c1.4,0,2.5,1.1,2.5,2.5V6z"/></g>
<g transform="translate(250.125,540.125) scale(4.9783333333333)"><path d="M3,5.5L3,5.5C1.6,5.5,0.5,4.4,0.5,3V0h5v3C5.5,4.4,4.4,5.5,3,5.5z"/></g>
<g transform="translate(308.125,540.125) scale(4.9783333333333)"><path d="M5.5,6h-5V3c0-1.4,1.1-2.5,2.5-2.5h0c1.4,0,2.5,1.1,2.5,2.5V6z"/></g>
<g transform="translate(337.125,540.125) scale(4.9783333333333)"><rect x="0.5" width="5" height="6"/></g>
<g transform="translate(395.125,540.125) scale(4.9783333333333)"><circle cx="3" cy="3" r="2.5"/></g>
<g transform="translate(453.125,540.125) scale(4.9783333333333)"><rect x="0.5" width="5" height="6"/></g>
<g transform="translate(482.125,540.125) scale(4.9783333333333)"><rect x="0.5" width="5" height="6"/></g>
<g transform="translate(540.125,540.125) scale(4.9783333333333)"><circle cx="3" cy="3" r="2.5"/></g>
<g transform="translate(743.125,540.125) scale(4.9783333333333)"><path d="M3,5.5L3,5.5C1.6,5.5,0.5,4.4,0.5,3V0h5v3C5.5,4.4,4.4,5.5,3,5.5z"/></g>
<g transform="translate(801.125,540.125) scale(4.9783333333333)"><circle cx="3" cy="3" r="2.5"/></g>
<g transform="translate(830.125,540.125) scale(4.9783333333333)"><path d="M5.5,6h-5V3c0-1.4,1.1-2.5,2.5-2.5h0c1.4,0,2.5,1.1,2.5,2.5V6z"/></g>
<g transform="translate(134.125,569.125) scale(4.9783333333333)"><path d="M5.5,6h-5V3c0-1.4,1.1-2.5,2.5-2.5h0c1.4,0,2.5,1.1,2.5,2.5V6z"/></g>
<g transform="translate(163.125,569.125) scale(4.9783333333333)"><rect x="0.5" width="5" height="6"/></g>
<g transform="translate(192.125,569.125) scale(4.9783333333333)"><circle cx="3" cy="3" r="2.5"/></g>
<g transform="translate(279.125,569.125) scale(4.9783333333333)"><circle cx="3" cy="3" r="2.5"/></g>
<g transform="translate(308.125,569.125) scale(4.9783333333333)"><rect x="0.5" width="5" height="6"/></g>
<g transform="translate(337.125,569.125) scale(4.9783333333333)"><rect x="0.5" width="5" height="6"/></g>
<g transform="translate(424.125,569.125) scale(4.9783333333333)"><path d="M5.5,6h-5V3c0-1.4,1.1-2.5,2.5-2.5h0c1.4,0,2.5,1.1,2.5,2.5V6z"/></g>
<g transform="translate(453.125,569.125) scale(4.9783333333333)"><rect x="0.5" width="5" height="6"/></g>
<g transform="translate(482.125,569.125) scale(4.9783333333333)"><path d="M3,5.5L3,5.5C1.6,5.5,0.5,4.4,0.5,3V0h5v3C5.5,4.4,4.4,5.5,3,5.5z"/></g>
<g transform="translate(569.125,569.125) scale(4.9783333333333)"><circle cx="3" cy="3" r="2.5"/></g>
<g transform="translate(598.125,569.125) scale(4.9783333333333)"><circle cx="3" cy="3" r="2.5"/></g>
<g transform="translate(627.125,569.125) scale(4.9783333333333)"><path d="M5.5,6h-5V3c0-1.4,1.1-2.5,2.5-2.5h0c1.4,0,2.5,1.1,2.5,2.5V6z"/></g>
<g transform="translate(685.125,569.125) scale(4.9783333333333)"><circle cx="3" cy="3" r="2.5"/></g>
<g transform="translate(772.125,569.125) scale(4.9783333333333)"><circle cx="3" cy="3" r="2.5"/></g>
<g transform="translate(830.125,569.125) scale(4.9783333333333)"><path d="M3,5.5L3,5.5C1.6,5.5,0.5,4.4,0.5,3V0h5v3C5.5,4.4,4.4,5.5,3,5.5z"/></g>
<g transform="translate(859.125,569.125) scale(4.9783333333333)"><path d="M5.5,6h-5V3c0-1.4,1.1-2.5,2.5-2.5h0c1.4,0,2.5,1.1,2.5,2.5V6z"/></g>
<g transform="translate(888.125,569.125) scale(4.9783333333333)"><path d="M5.5,6h-5V3c0-1.4,1.1-2.5,2.5-2.5h0c1.4,0,2.5,1.1,2.5,2.5V6z"/></g>
<g transform="translate(917.125,569.125) scale(4.9783333333333)"><path d="M5.5,6h-5V3c0-1.4,1.1-2.5,2.5-2.5h0c1.4,0,2.5,1.1,2.5,2.5V6z"/></g>
<g transform="translate(105.125,598.125) scale(4.9783333333333)"><path d="M5.5,6h-5V3c0-1.4,1.1-2.5,2.5-2.5h0c1.4,0,2.5,1.1,2.5,2.5V6z"/></g>
<g transform="translate(134.125,598.125) scale(4.9783333333333)"><path d="M3,5.5L3,5.5C1.6,5.5,0.5,4.4,0.5,3V0h5v3C5.5,4.4,4.4,5.5,3,5.5z"/></g>
<g transform="translate(163.125,598.125) scale(4.9783333333333)"><path d="M3,5.5L3,5.5C1.6,5.5,0.5,4.4,0.5,3V0h5v3C5.5,4.4,4.4,5.5,3,5.5z"/></g>
<g transform="translate(221.125,598.125) scale(4.9783333333333)"><path d="M5.5,6h-5V3c0-1.4,1.1-2.5,2.5-2.5h0c1.4,0,2.5,1.1,2.5,2.5V6z"/></g>
<g transform="translate(250.125,598.125) scale(4.9783333333333)"><path d="M5.5,6h-5V3c0-1.4,1.1-2.5,2.5-2.5h0c1.4,0,2.5,1.1,2.5,2.5V6z"/></g>
<g transform="translate(308.125,598.125) scale(4.9783333333333)"><path d="M3,5.5L3,5.5C1.6,5.5,0.5,4.4,0.5,3V0h5v3C5.5,4.4,4.4,5.5,3,5.5z"/></g>
<g transform="translate(337.125,598.125) scale(4.9783333333333)"><path d="M3,5.5L3,5.5C1.6,5.5,0.5,4.4,0.5,3V0h5v3C5.5,4.4,4.4,5.5,3,5.5z"/></g>
<g transform="translate(395.125,598.125) scale(4.9783333333333)"><circle cx="3" cy="3" r="2.5"/></g>
<g transform="translate(424.125,598.125) scale(4.9783333333333)"><path d="M3,5.5L3,5.5C1.6,5.5,0.5,4.4,0.5,3V0h5v3C5.5,4.4,4.4,5.5,3,5.5z"/></g>
<g transform="translate(453.125,598.125) scale(4.9783333333333)"><path d="M3,5.5L3,5.5C1.6,5.5,0.5,4.4,0.5,3V0h5v3C5.5,4.4,4.4,5.5,3,5.5z"/></g>
<g transform="translate(511.125,598.125) scale(4.9783333333333)"><circle cx="3" cy="3" r="2.5"/></g>
<g transform="translate(627.125,598.125) scale(4.9783333333333)"><rect x="0.5" width="5" height="6"/></g>
<g transform="translate(656.125,598.125) scale(4.9783333333333)"><circle cx="3" cy="3" r="2.5"/></g>
<g transform="translate(714.125,598.125) scale(4.9783333333333)"><circle cx="3" cy="3" r="2.5"/></g>
<g transform="translate(801.125,598.125) scale(4.9783333333333)"><path d="M5.5,6h-5V3c0-1.4,1.1-2.5,2.5-2.5h0c1.4,0,2.5,1.1,2.5,2.5V6z"/></g>
<g transform="translate(859.125,598.125) scale(4.9783333333333)"><rect x="0.5" width="5" height="6"/></g>
<g transform="translate(888.125,598.125) scale(4.9783333333333)"><path d="M3,5.5L3,5.5C1.6,5.5,0.5,4.4,0.5,3V0h5v3C5.5,4.4,4.4,5.5,3,5.5z"/></g>
<g transform="translate(917.125,598.125) scale(4.9783333333333)"><path d="M3,5.5L3,5.5C1.6,5.5,0.5,4.4,0.5,3V0h5v3C5.5,4.4,4.4,5.5,3,5.5z"/></g>
<g transform="translate(105.125,627.125) scale(4.9783333333333)"><rect x="0.5" width="5" height="6"/></g>
<g transform="translate(221.125,627.125) scale(4.9783333333333)"><rect x="0.5" width="5" height="6"/></g>
<g transform="translate(250.125,627.125) scale(4.9783333333333)"><path d="M3,5.5L3,5.5C1.6,5.5,0.5,4.4,0.5,3V0h5v3C5.5,4.4,4.4,5.5,3,5.5z"/></g>
<g transform="translate(279.125,627.125) scale(4.9783333333333)"><circle cx="3" cy="3" r="2.5"/></g>
<g transform="translate(366.125,627.125) scale(4.9783333333333)"><circle cx="3" cy="3" r="2.5"/></g>
<g transform="translate(482.125,627.125) scale(4.9783333333333)"><path d="M5.5,6h-5V3c0-1.4,1.1-2.5,2.5-2.5h0c1.4,0,2.5,1.1,2.5,2.5V6z"/></g>
<g transform="translate(540.125,627.125) scale(4.9783333333333)"><circle cx="3" cy="3" r="2.5"/></g>
<g transform="translate(627.125,627.125) scale(4.9783333333333)"><path d="M3,5.5L3,5.5C1.6,5.5,0.5,4.4,0.5,3V0h5v3C5.5,4.4,4.4,5.5,3,5.5z"/></g>
<g transform="translate(685.125,627.125) scale(4.9783333333333)"><circle cx="3" cy="3" r="2.5"/></g>
<g transform="translate(743.125,627.125) scale(4.9783333333333)"><path d="M5.5,6h-5V3c0-1.4,1.1-2.5,2.5-2.5h0c1.4,0,2.5,1.1,2.5,2.5V6z"/></g>
<g transform="translate(801.125,627.125) scale(4.9783333333333)"><rect x="0.5" width="5" height="6"/></g>
<g transform="translate(830.125,627.125) scale(4.9783333333333)"><circle cx="3" cy="3" r="2.5"/></g>
<g transform="translate(859.125,627.125) scale(4.9783333333333)"><path d="M3,5.5L3,5.5C1.6,5.5,0.5,4.4,0.5,3V0h5v3C5.5,4.4,4.4,5.5,3,5.5z"/></g>
<g transform="translate(105.125,656.125) scale(4.9783333333333)"><rect x="0.5" width="5" height="6"/></g>
<g transform="translate(163.125,656.125) scale(4.9783333333333)"><path d="M5.5,6h-5V3c0-1.4,1.1-2.5,2.5-2.5h0c1.4,0,2.5,1.1,2.5,2.5V6z"/></g>
<g transform="translate(221.125,656.125) scale(4.9783333333333)"><path d="M3,5.5L3,5.5C1.6,5.5,0.5,4.4,0.5,3V0h5v3C5.5,4.4,4.4,5.5,3,5.5z"/></g>
<g transform="translate(308.125,656.125) scale(4.9783333333333)"><circle cx="3" cy="3" r="2.5"/></g>
<g transform="translate(337.125,656.125) scale(4.9783333333333)"><path d="M5.5,6h-5V3c0-1.4,1.1-2.5,2.5-2.5h0c1.4,0,2.5,1.1,2.5,2.5V6z"/></g>
<g transform="translate(395.125,656.125) scale(4.9783333333333)"><circle cx="3" cy="3" r="2.5"/></g>
<g transform="translate(482.125,656.125) scale(4.9783333333333)"><path d="M3,5.5L3,5.5C1.6,5.5,0.5,4.4,0.5,3V0h5v3C5.5,4.4,4.4,5.5,3,5.5z"/></g>
<g transform="translate(511.125,656.125) scale(4.9783333333333)"><path d="M5.5,6h-5V3c0-1.4,1.1-2.5,2.5-2.5h0c1.4,0,2.5,1.1,2.5,2.5V6z"/></g>
<g transform="translate(743.125,656.125) scale(4.9783333333333)"><rect x="0.5" width="5" height="6"/></g>
<g transform="translate(801.125,656.125) scale(4.9783333333333)"><rect x="0.5" width="5" height="6"/></g>
<g transform="translate(888.125,656.125) scale(4.9783333333333)"><circle cx="3" cy="3" r="2.5"/></g>
<g transform="translate(917.125,656.125) scale(4.9783333333333)"><circle cx="3" cy="3" r="2.5"/></g>
<g transform="translate(105.125,685.125) scale(4.9783333333333)"><path d="M3,5.5L3,5.5C1.6,5.5,0.5,4.4,0.5,3V0h5v3C5.5,4.4,4.4,5.5,3,5.5z"/></g>
<g transform="translate(163.125,685.125) scale(4.9783333333333)"><path d="M3,5.5L3,5.5C1.6,5.5,0.5,4.4,0.5,3V0h5v3C5.5,4.4,4.4,5.5,3,5.5z"/></g>
<g transform="translate(192.125,685.125) scale(4.9783333333333)"><circle cx="3" cy="3" r="2.5"/></g>
<g transform="translate(250.125,685.125) scale(4.9783333333333)"><circle cx="3" cy="3" r="2.5"/></g>
<g transform="translate(279.125,685.125) scale(4.9783333333333)"><circle cx="3" cy="3" r="2.5"/></g>
<g transform="translate(337.125,685.125) scale(4.9783333333333)"><rect x="0.5" width="5" height="6"/></g>
<g transform="translate(453.125,685.125) scale(4.9783333333333)"><path d="M5.5,6h-5V3c0-1.4,1.1-2.5,2.5-2.5h0c1.4,0,2.5,1.1,2.5,2.5V6z"/></g>
<g transform="translate(511.125,685.125) scale(4.9783333333333)"><rect x="0.5" width="5" height="6"/></g>
<g transform="translate(569.125,685.125) scale(4.9783333333333)"><circle cx="3" cy="3" r="2.5"/></g>
<g transform="translate(656.125,685.125) scale(4.9783333333333)"><path d="M5.5,6h-5V3c0-1.4,1.1-2.5,2.5-2.5h0c1.4,0,2.5,1.1,2.5,2.5V6z"/></g>
<g transform="translate(685.125,685.125) scale(4.9783333333333)"><path d="M5.5,6h-5V3c0-1.4,1.1-2.5,2.5-2.5h0c1.4,0,2.5,1.1,2.5,2.5V6z"/></g>
<g transform="translate(714.125,685.125) scale(4.9783333333333)"><circle cx="3" cy="3" r="2.5"/></g>
<g transform="translate(743.125,685.125) scale(4.9783333333333)"><path d="M3,5.5L3,5.5C1.6,5.5,0.5,4.4,0.5,3V0h5v3C5.5,4.4,4.4,5.5,3,5.5z"/></g>
<g transform="translate(772.125,685.125) scale(4.9783333333333)"><circle cx="3" cy="3" r="2.5"/></g>
<g transform="translate(801.125,685.125) scale(4.9783333333333)"><rect x="0.5" width="5" height="6"/></g>
<g transform="translate(859.125,685.125) scale(4.9783333333333)"><circle cx="3" cy="3" r="2.5"/></g>
<g transform="translate(337.125,714.125) scale(4.9783333333333)"><path d="M3,5.5L3,5.5C1.6,5.5,0.5,4.4,0.5,3V0h5v3C5.5,4.4,4.4,5.5,3,5.5z"/></g>
<g transform="translate(395.125,714.125) scale(4.9783333333333)"><path d="M5.5,6h-5V3c0-1.4,1.1-2.5,2.5-2.5h0c1.4,0,2.5,1.1,2.5,2.5V6z"/></g>
<g transform="translate(424.125,714.125) scale(4.9783333333333)"><path d="M5.5,6h-5V3c0-1.4,1.1-2.5,2.5-2.5h0c1.4,0,2.5,1.1,2.5,2.5V6z"/></g>
<g transform="translate(453.125,714.125) scale(4.9783333333333)"><path d="M3,5.5L3,5.5C1.6,5.5,0.5,4.4,0.5,3V0h5v3C5.5,4.4,4.4,5.5,3,5.5z"/></g>
<g transform="translate(482.125,714.125) scale(4.9783333333333)"><circle cx="3" cy="3" r="2.5"/></g>
<g transform="translate(511.125,714.125) scale(4.9783333333333)"><path d="M3,5.5L3,5.5C1.6,5.5,0.5,4.4,0.5,3V0h5v3C5.5,4.4,4.4,5.5,3,5.5z"/></g>
<g transform="translate(540.125,714.125) scale(4.9783333333333)"><path d="M5.5,6h-5V3c0-1.4,1.1-2.5,2.5-2.5h0c1.4,0,2.5,1.1,2.5,2.5V6z"/></g>
<g transform="translate(598.125,714.125) scale(4.9783333333333)"><circle cx="3" cy="3" r="2.5"/></g>
<g transform="translate(627.125,714.125) scale(4.9783333333333)"><circle cx="3" cy="3" r="2.5"/></g>
<g transform="translate(656.125,714.125) scale(4.9783333333333)"><rect x="0.5" width="5" height="6"/></g>
<g transform="translate(685.125,714.125) scale(4.9783333333333)"><rect x="0.5" width="5" height="6"/></g>
<g transform="translate(801.125,714.125) scale(4.9783333333333)"><rect x="0.5" width="5" height="6"/></g>
<g transform="translate(830.125,714.125) scale(4.9783333333333)"><circle cx="3" cy="3" r="2.5"/></g>
<g transform="translate(888.125,714.125) scale(4.9783333333333)"><circle cx="3" cy="3" r="2.5"/></g>
<g transform="translate(917.125,714.125) scale(4.9783333333333)"><circle cx="3" cy="3" r="2.5"/></g>
<g transform="translate(395.125,743.125) scale(4.9783333333333)"><rect x="0.5" width="5" height="6"/></g>
<g transform="translate(424.125,743.125) scale(4.9783333333333)"><path d="M3,5.5L3,5.5C1.6,5.5,0.5,4.4,0.5,3V0h5v3C5.5,4.4,4.4,5.5,3,5.5z"/></g>
<g transform="translate(540.125,743.125) scale(4.9783333333333)"><rect x="0.5" width="5" height="6"/></g>
<g transform="translate(656.125,743.125) scale(4.9783333333333)"><rect x="0.5" width="5" height="6"/></g>
<g transform="translate(685.125,743.125) scale(4.9783333333333)"><rect x="0.5" width="5" height="6"/></g>
<g transform="translate(743.125,743.125) scale(4.9783333333333)"><circle cx="3" cy="3" r="2.5"/></g>
<g transform="translate(801.125,743.125) scale(4.9783333333333)"><rect x="0.5" width="5" height="6"/></g>
<g transform="translate(366.125,772.125) scale(4.9783333333333)"><circle cx="3" cy="3" r="2.5"/></g>
<g transform="translate(395.125,772.125) scale(4.9783333333333)"><rect x="0.5" width="5" height="6"/></g>
<g transform="translate(482.125,772.125) scale(4.9783333333333)"><circle cx="3" cy="3" r="2.5"/></g>
<g transform="translate(540.125,772.125) scale(4.9783333333333)"><rect x="0.5" width="5" height="6"/></g>
<g transform="translate(627.125,772.125) scale(4.9783333333333)"><path d="M5.5,6h-5V3c0-1.4,1.1-2.5,2.5-2.5h0c1.4,0,2.5,1.1,2.5,2.5V6z"/></g>
<g transform="translate(656.125,772.125) scale(4.9783333333333)"><path d="M3,5.5L3,5.5C1.6,5.5,0.5,4.4,0.5,3V0h5v3C5.5,4.4,4.4,5.5,3,5.5z"/></g>
<g transform="translate(685.125,772.125) scale(4.9783333333333)"><rect x="0.5" width="5" height="6"/></g>
<g transform="translate(801.125,772.125) scale(4.9783333333333)"><rect x="0.5" width="5" height="6"/></g>
<g transform="translate(830.125,772.125) scale(4.9783333333333)"><path d="M5.5,6h-5V3c0-1.4,1.1-2.5,2.5-2.5h0c1.4,0,2.5,1.1,2.5,2.5V6z"/></g>
<g transform="translate(888.125,772.125) scale(4.9783333333333)"><circle cx="3" cy="3" r="2.5"/></g>
<g transform="translate(337.125,801.125) scale(4.9783333333333)"><path d="M5.5,6h-5V3c0-1.4,1.1-2.5,2.5-2.5h0c1.4,0,2.5,1.1,2.5,2.5V6z"/></g>
<g transform="translate(395.125,801.125) scale(4.9783333333333)"><path d="M3,5.5L3,5.5C1.6,5.5,0.5,4.4,0.5,3V0h5v3C5.5,4.4,4.4,5.5,3,5.5z"/></g>
<g transform="translate(453.125,801.125) scale(4.9783333333333)"><path d="M5.5,6h-5V3c0-1.4,1.1-2.5,2.5-2.5h0c1.4,0,2.5,1.1,2.5,2.5V6z"/></g>
<g transform="translate(540.125,801.125) scale(4.9783333333333)"><path d="M3,5.5L3,5.5C1.6,5.5,0.5,4.4,0.5,3V0h5v3C5.5,4.4,4.4,5.5,3,5.5z"/></g>
<g transform="translate(569.125,801.125) scale(4.9783333333333)"><path d="M5.5,6h-5V3c0-1.4,1.1-2.5,2.5-2.5h0c1.4,0,2.5,1.1,2.5,2.5V6z"/></g>
<g transform="translate(598.125,801.125) scale(4.9783333333333)"><circle cx="3" cy="3" r="2.5"/></g>
<g transform="translate(627.125,801.125) scale(4.9783333333333)"><rect x="0.5" width="5" height="6"/></g>
<g transform="translate(685.125,801.125) scale(4.9783333333333)"><rect x="0.5" width="5" height="6"/></g>
<g transform="translate(714.125,801.125) scale(4.9783333333333)"><path d="M5.5,6h-5V3c0-1.4,1.1-2.5,2.5-2.5h0c1.4,0,2.5,1.1,2.5,2.5V6z"/></g>
<g transform="translate(743.125,801.125) scale(4.9783333333333)"><circle cx="3" cy="3" r="2.5"/></g>
<g transform="translate(772.125,801.125) scale(4.9783333333333)"><path d="M5.5,6h-5V3c0-1.4,1.1-2.5,2.5-2.5h0c1.4,0,2.5,1.1,2.5,2.5V6z"/></g>
<g transform="translate(801.125,801.125) scale(4.9783333333333)"><path d="M3,5.5L3,5.5C1.6,5.5,0.5,4.4,0.5,3V0h5v3C5.5,4.4,4.4,5.5,3,5.5z"/></g>
<g transform="translate(830.125,801.125) scale(4.9783333333333)"><rect x="0.5" width="5" height="6"/></g>
<g transform="translate(859.125,801.125) scale(4.9783333333333)"><path d="M5.5,6h-5V3c0-1.4,1.1-2.5,2.5-2.5h0c1.4,0,2.5,1.1,2.5,2.5V6z"/></g>
<g transform="translate(917.125,801.125) scale(4.9783333333333)"><circle cx="3" cy="3" r="2.5"/></g>
<g transform="translate(337.125,830.125) scale(4.9783333333333)"><rect x="0.5" width="5" height="6"/></g>
<g transform="translate(366.125,830.125) scale(4.9783333333333)"><path d="M5.5,6h-5V3c0-1.4,1.1-2.5,2.5-2.5h0c1.4,0,2.5,1.1,2.5,2.5V6z"/></g>
<g transform="translate(453.125,830.125) scale(4.9783333333333)"><rect x="0.5" width="5" height="6"/></g>
<g transform="translate(511.125,830.125) scale(4.9783333333333)"><path d="M5.5,6h-5V3c0-1.4,1.1-2.5,2.5-2.5h0c1.4,0,2.5,1.1,2.5,2.5V6z"/></g>
<g transform="translate(569.125,830.125) scale(4.9783333333333)"><rect x="0.5" width="5" height="6"/></g>
<g transform="translate(627.125,830.125) scale(4.9783333333333)"><rect x="0.5" width="5" height="6"/></g>
<g transform="translate(656.125,830.125) scale(4.9783333333333)"><path d="M5.5,6h-5V3c0-1.4,1.1-2.5,2.5-2.5h0c1.4,0,2.5,1.1,2.5,2.5V6z"/></g>
<g transform="translate(685.125,830.125) scale(4.9783333333333)"><rect x="0.5" width="5" height="6"/></g>
<g transform="translate(714.125,830.125) scale(4.9783333333333)"><rect x="0.5" width="5" height="6"/></g>
<g transform="translate(772.125,830.125) scale(4.9783333333333)"><rect x="0.5" width="5" height="6"/></g>
<g transform="translate(830.125,830.125) scale(4.9783333333333)"><rect x="0.5" width="5" height="6"/></g>
<g transform="translate(859.125,830.125) scale(4.9783333333333)"><rect x="0.5" width="5" height="6"/></g>
<g transform="translate(337.125,859.125) scale(4.9783333333333)"><path d="M3,5.5L3,5.5C1.6,5.5,0.5,4.4,0.5,3V0h5v3C5.5,4.4,4.4,5.5,3,5.5z"/></g>
<g transform="translate(366.125,859.125) scale(4.9783333333333)"><path d="M3,5.5L3,5.5C1.6,5.5,0.5,4.4,0.5,3V0h5v3C5.5,4.4,4.4,5.5,3,5.5z"/></g>
<g transform="translate(453.125,859.125) scale(4.9783333333333)"><path d="M3,5.5L3,5.5C1.6,5.5,0.5,4.4,0.5,3V0h5v3C5.5,4.4,4.4,5.5,3,5.5z"/></g>
<g transform="translate(511.125,859.125) scale(4.9783333333333)"><rect x="0.5" width="5" height="6"/></g>
<g transform="translate(540.125,859.125) scale(4.9783333333333)"><circle cx="3" cy="3" r="2.5"/></g>
<g transform="translate(569.125,859.125) scale(4.9783333333333)"><rect x="0.5" width="5" height="6"/></g>
<g transform="translate(627.125,859.125) scale(4.9783333333333)"><path d="M3,5.5L3,5.5C1.6,5.5,0.5,4.4,0.5,3V0h5v3C5.5,4.4,4.4,5.5,3,5.5z"/></g>
<g transform="translate(656.125,859.125) scale(4.9783333333333)"><rect x="0.5" width="5" height="6"/></g>
<g transform="translate(685.125,859.125) scale(4.9783333333333)"><rect x="0.5" width="5" height="6"/></g>
<g transform="translate(714.125,859.125) scale(4.9783333333333)"><path d="M3,5.5L3,5.5C1.6,5.5,0.5,4.4,0.5,3V0h5v3C5.5,4.4,4.4,5.5,3,5.5z"/></g>
<g transform="translate(743.125,859.125) scale(4.9783333333333)"><circle cx="3" cy="3" r="2.5"/></g>
<g transform="translate(772.125,859.125) scale(4.9783333333333)"><path d="M3,5.5L3,5.5C1.6,5.5,0.5,4.4,0.5,3V0h5v3C5.5,4.4,4.4,5.5,3,5.5z"/></g>
<g transform="translate(801.125,859.125) scale(4.9783333333333)"><path d="M5.5,6h-5V3c0-1.4,1.1-2.5,2.5-2.5h0c1.4,0,2.5,1.1,2.5,2.5V6z"/></g>
<g transform="translate(830.125,859.125) scale(4.9783333333333)"><rect x="0.5" width="5" height="6"/></g>
<g transform="translate(859.125,859.125) scale(4.9783333333333)"><path d="M3,5.5L3,5.5C1.6,5.5,0.5,4.4,0.5,3V0h5v3C5.5,4.4,4.4,5.5,3,5.5z"/></g>
<g transform="translate(888.125,859.125) scale(4.9783333333333)"><path d="M5.5,6h-5V3c0-1.4,1.1-2.5,2.5-2.5h0c1.4,0,2.5,1.1,2.5,2.5V6z"/></g>
<g transform="translate(395.125,888.125) scale(4.9783333333333)"><path d="M5.5,6h-5V3c0-1.4,1.1-2.5,2.5-2.5h0c1.4,0,2.5,1.1,2.5,2.5V6z"/></g>
<g transform="translate(482.125,888.125) scale(4.9783333333333)"><circle cx="3" cy="3" r="2.5"/></g>
<g transform="translate(511.125,888.125) scale(4.9783333333333)"><path d="M3,5.5L3,5.5C1.6,5.5,0.5,4.4,0.5,3V0h5v3C5.5,4.4,4.4,5.5,3,5.5z"/></g>
<g transform="translate(569.125,888.125) scale(4.9783333333333)"><rect x="0.5" width="5" height="6"/></g>
<g transform="translate(656.125,888.125) scale(4.9783333333333)"><path d="M3,5.5L3,5.5C1.6,5.5,0.5,4.4,0.5,3V0h5v3C5.5,4.4,4.4,5.5,3,5.5z"/></g>
<g transform="translate(685.125,888.125) scale(4.9783333333333)"><path d="M3,5.5L3,5.5C1.6,5.5,0.5,4.4,0.5,3V0h5v3C5.5,4.4,4.4,5.5,3,5.5z"/></g>
<g transform="translate(801.125,888.125) scale(4.9783333333333)"><rect x="0.5" width="5" height="6"/></g>
<g transform="translate(830.125,888.125) scale(4.9783333333333)"><rect x="0.5" width="5" height="6"/></g>
<g transform="translate(888.125,888.125) scale(4.9783333333333)"><path d="M3,5.5L3,5.5C1.6,5.5,0.5,4.4,0.5,3V0h5v3C5.5,4.4,4.4,5.5,3,5.5z"/></g>
<g transform="translate(395.125,917.125) scale(4.9783333333333)"><path d="M3,5.5L3,5.5C1.6,5.5,0.5,4.4,0.5,3V0h5v3C5.5,4.4,4.4,5.5,3,5.5z"/></g>
<g transform="translate(569.125,917.125) scale(4.9783333333333)"><path d="M3,5.5L3,5.5C1.6,5.5,0.5,4.4,0.5,3V0h5v3C5.5,4.4,4.4,5.5,3,5.5z"/></g>
<g transform="translate(598.125,917.125) scale(4.9783333333333)"><circle cx="3" cy="3" r="2.5"/></g>
<g transform="translate(714.125,917.125) scale(4.9783333333333)"><circle cx="3" cy="3" r="2.5"/></g>
<g transform="translate(801.125,917.125) scale(4.9783333333333)"><path d="M3,5.5L3,5.5C1.6,5.5,0.5,4.4,0.5,3V0h5v3C5.5,4.4,4.4,5.5,3,5.5z"/></g>
<g transform="translate(830.125,917.125) scale(4.9783333333333)"><path d="M3,5.5L3,5.5C1.6,5.5,0.5,4.4,0.5,3V0h5v3C5.5,4.4,4.4,5.5,3,5.5z"/></g>
<g transform="translate(859.125,917.125) scale(4.9783333333333)"><circle cx="3" cy="3" r="2.5"/></g>
</g></g></mask></defs>
<rect width="973.28229166667" height="973.28229166667" fill="#00ff00" x="43.802083333333" y="219.01041666667" />
<rect x="0" y="0" width="1051.25" height="1226.4583333333" mask="url(#qrmask)" fill="url(#pattern-mask)" />
<g fill="#000000" transform="scale(43.802083333333)"><path d="M1.3,28L22.6,28c0.7,0,1.3-0.6,1.3-1.3L24,1.4c0-0.7-0.6-1.3-1.3-1.3L1.4,0C0.7,0,0.1,0.6,0,1.3L0,26.6 C-0.1,27.4,0.5,28,1.3,28z M1,6c0-0.6,0.5-1,1-1L22,5c0.6,0,1,0.5,1,1L23,26c0,0.6-0.5,1-1,1L2,27c-0.6,0-1-0.5-1-1L1,6z"/></g>
<g transform="translate(0,175.20833333333)"><g transform="translate(105.125,105.125)"  fill="#00ff00"><g transform="scale(14.5)"><path d="M0,0v14h14V0H0z M12,12H2V2h10V12z"/></g></g>
<g transform="translate(743.125,105.125)"  fill="#00ff00"><g transform="scale(14.5)"><path d="M0,0v14h14V0H0z M12,12H2V2h10V12z"/></g></g>
<g transform="translate(105.125,743.125)"  fill="#00ff00"><g transform="scale(14.5)"><path d="M0,0v14h14V0H0z M12,12H2V2h10V12z"/></g></g>
<g transform="translate(163.125,163.125)"  fill="#000000"><g transform="scale(14.5)"><path d="M6,1.7v2.7C6,5.2,5.2,6,4.3,6H1.7C0.7,6,0,5.3,0,4.3V1.7C0,0.8,0.8,0,1.7,0h2.7C5.3,0,6,0.7,6,1.7z"/></g></g>
<g transform="translate(801.125,163.125)"  fill="#000000"><g transform="scale(14.5)"><path d="M6,1.7v2.7C6,5.2,5.2,6,4.3,6H1.7C0.7,6,0,5.3,0,4.3V1.7C0,0.8,0.8,0,1.7,0h2.7C5.3,0,6,0.7,6,1.7z"/></g></g>
<g transform="translate(163.125,801.125)"  fill="#000000"><g transform="scale(14.5)"><path d="M6,1.7v2.7C6,5.2,5.2,6,4.3,6H1.7C0.7,6,0,5.3,0,4.3V1.7C0,0.8,0.8,0,1.7,0h2.7C5.3,0,6,0.7,6,1.7z"/></g></g></g>
<text fill="#FFFFFF" font-family="&#39;Courier New&#39;, Courier, monospace" font-size="131.40625px" text-anchor="middle" x="525.625" y="160.04607371795">SCAN ME</text></svg>